<svg id="Layer_1" data-name="Layer 1"
    xmlns="http://www.w3.org/2000/svg" viewBox="0 0 144.24 91.68">
    <defs>
        <style>.cls-1{fill:#79b2b3;}.cls-2{fill:#60a19b;}.cls-3{fill:#b6d2d0;}.cls-4{fill:#34827a;}.cls-5{fill:none;}.cls-6{fill:#005a57;}.cls-7{fill:#488c7c;}</style>
    </defs>
    <title>logo</title>
    <path class="cls-1" d="M323.43,378.32a45.92,45.92,0,0,0-32.6-32.42,45.87,45.87,0,0,0-29.33,25.64,45.74,45.74,0,0,1,14.57-3.69,21.75,21.75,0,0,1,2.57-.17h2.56a21.75,21.75,0,0,1,2.57.17,45.84,45.84,0,0,1,40.08,32.57A46.1,46.1,0,0,0,325,390.24h0A46,46,0,0,0,323.43,378.32Z" transform="translate(-204.12 -344.4)"/>
    <path class="cls-2" d="M279.16,344.4h0a45.83,45.83,0,0,0-44.27,33.92,45.9,45.9,0,0,0,26.8,30.46,45.48,45.48,0,0,1-3.88-15,21.75,21.75,0,0,1-.17-2.57V390h0v-1.28a21.75,21.75,0,0,1,.17-2.57,45.84,45.84,0,0,1,33-40.21A46.31,46.31,0,0,0,279.16,344.4Z" transform="translate(-204.12 -344.4)"/>
    <path class="cls-3" d="M318.85,389.32a46,46,0,0,0-20.51-17.78A45.74,45.74,0,0,1,302,386.11a21.75,21.75,0,0,1,.17,2.57V390h0v1.28a21.75,21.75,0,0,1-.17,2.57,45.85,45.85,0,0,1-34.82,40.69,46.12,46.12,0,0,0,12,1.58h0a45.83,45.83,0,0,0,44.69-35.66A46,46,0,0,0,318.85,389.32Z" transform="translate(-204.12 -344.4)"/>
    <path class="cls-4" d="M285.52,411.79a21.17,21.17,0,0,1-4.32.45h-2.56c-.18,0-.35,0-.52,0a45.85,45.85,0,0,1-43.23-33.89,46,46,0,0,0-1.57,11.92h0a45.84,45.84,0,0,0,33.89,44.26A45.9,45.9,0,0,0,298.53,408,45.62,45.62,0,0,1,285.52,411.79Z" transform="translate(-204.12 -344.4)"/>
    <path class="cls-5" d="M281.2,367.68h-1.28c1.3,0,2.58.07,3.85.17A21.75,21.75,0,0,0,281.2,367.68Z" transform="translate(-204.12 -344.4)"/>
    <path class="cls-5" d="M278.64,367.68a21.75,21.75,0,0,0-2.57.17c1.27-.1,2.55-.17,3.85-.17Z" transform="translate(-204.12 -344.4)"/>
    <path class="cls-5" d="M257.64,388.68V390c0-1.3.07-2.58.17-3.85A21.75,21.75,0,0,0,257.64,388.68Z" transform="translate(-204.12 -344.4)"/>
    <path class="cls-5" d="M257.64,391.24a21.75,21.75,0,0,0,.17,2.57c-.1-1.27-.17-2.55-.17-3.85Z" transform="translate(-204.12 -344.4)"/>
    <path class="cls-5" d="M302.2,388.68a21.75,21.75,0,0,0-.17-2.57c.1,1.27.17,2.55.17,3.85Z" transform="translate(-204.12 -344.4)"/>
    <path class="cls-5" d="M302.2,391.24V390c0,1.3-.07,2.58-.17,3.85A21.75,21.75,0,0,0,302.2,391.24Z" transform="translate(-204.12 -344.4)"/>
    <path class="cls-5" d="M278.64,412.24h.52c-.35,0-.69,0-1,0C278.29,412.22,278.46,412.24,278.64,412.24Z" transform="translate(-204.12 -344.4)"/>
    <path class="cls-5" d="M281.2,412.24a21.17,21.17,0,0,0,4.32-.45,46,46,0,0,1-6.36.45Z" transform="translate(-204.12 -344.4)"/>
    <path class="cls-6" d="M204.7,346.72c13.53,0,26.53-.16,39.5.18,2,.05,3.79,2.47,5.68,3.79-2.06,1.4-4,3.88-6.19,4-8,.5-16.15.44-24.21.14-5.74-.2-7.71,1.13-7.62,5.94.34,17.68.06,35.37,0,53.05,0,1.41.36,3-.32,4.18a5.35,5.35,0,0,1-3.7,2.42c-1.18,0-2.51-1.54-3.46-2.57-.45-.48-.2-1.38-.2-2.08q0-33.16,0-66.31A20.11,20.11,0,0,1,204.7,346.72Z" transform="translate(-204.12 -344.4)"/>
    <path class="cls-7" d="M347.94,430c-10,0-19.52.12-29.07-.14-1.43,0-2.79-1.86-4.18-2.86,1.51-1.06,2.95-2.93,4.55-3,5.91-.37,11.89-.33,17.82-.11,4.22.16,5.67-.85,5.61-4.48-.26-13.35-.05-26.71,0-40.06,0-1.07-.27-2.26.23-3.17a3.94,3.94,0,0,1,2.73-1.82c.86,0,1.84,1.16,2.54,1.94.33.36.15,1,.15,1.57q0,25.05,0,50.08A16.21,16.21,0,0,1,347.94,430Z" transform="translate(-204.12 -344.4)"/>
</svg>