<svg id="a955b1b5-7189-4d9c-b072-7fc1ece21ff7"
    xmlns="http://www.w3.org/2000/svg" viewBox="0 0 664.5 714" height="400px" width="400px">
    <title>undraw_modern_life_u1ev</title>
    <rect class="user1" x="132.5" y="713" width="532" height="1"/>
    <path class="user2" d="M365.18,292,348,282s-41.62-5.74-35.88-25.83,34.45,0,34.45,0L365.18,269Z" transform="translate(0 0)"/>
    <path class="user3" d="M365.18,292,348,282s-41.62-5.74-35.88-25.83,34.45,0,34.45,0L365.18,269Z" transform="translate(0 0)"/>
    <path class="user2" d="M428.32,190.11s-41.61,30.14-41.61,20.09c0-6-7.26-24.53-13.06-38.32-3.84-9.14-7-16.21-7-16.21l43-11.48a50.23,50.23,0,0,0,.48,21A40.48,40.48,0,0,0,428.32,190.11Z" transform="translate(0 0)"/>
    <path class="user2" d="M342.25,445.94s-33,73.19-21.53,100.45c0,0-35.87,109.07-47.35,113.37s28.7,11.48,28.7,11.48,47.33-63.14,50.18-113.37S406.8,456,406.8,456Z" transform="translate(0 0)"/>
    <path class="user2" d="M418.25,475.68S436.9,536,461.3,553.18c0,0,50.23,83.23,43,109.06,0,0,28.7,4.31,30.14,0,0,0-12.92-90.41-44.49-126.28s-17.14-79-17.14-79Z" transform="translate(0 0)"/>
    <path class="user4" d="M292,661.2s-17.22-14.35-30.13-2.87-35.88,8.61-53.1,2.87-15.78,8.61,24.4,27.26,63.14,23,63.14,23,5.74-23,5.74-28.7,3.57-16.47,3.57-16.47Z" transform="translate(0 0)"/>
    <path class="user2" d="M393.46,444.46s.42,80.28,22.18,100.3c0,0,12.73,114.11,4.07,122.8s30.88-1.5,30.88-1.5,16.79-77.1-1.5-124,7.26-115.33,7.26-115.33Z" transform="translate(0 0)"/>
    <path class="user4" d="M437.25,661.12s-21.63-5.89-28.6,9.92-29,22.75-47.1,24.69-10.77,14.39,33.53,14.65,67-5.34,67-5.34-4.34-23.3-6.71-28.49-3.6-16.46-3.6-16.46Z" transform="translate(0 0)"/>
    <path class="user2" d="M347.59,440.22s-7.79,79.91,11.81,102c0,0,1,114.81-8.5,122.57s30.87,1.67,30.87,1.67S406.35,591.53,393,543s19-114,19-114Z" transform="translate(0 0)"/>
    <path class="user4" d="M369,660.23s-20.91-8.07-29.46,6.94-31.22,19.66-49.38,19.75S278,700.13,322,704.92s67.18,1.54,67.18,1.54-1.94-23.63-3.77-29-1.9-16.74-1.9-16.74Z" transform="translate(0 0)"/>
    <path class="user4" d="M518.73,659.37s-17.22-10-20.09,8.61-44.49,30.14-44.49,30.14S434.06,716.77,495.77,711s57.4-17.22,57.4-17.22l-19.54-37.14Z" transform="translate(0 0)"/>
    <path class="user5" d="M365.18,379.54s-44.49,63.14-27.27,70.31,15.79-11.48,33,8.61,61.71,10,67.45,5.74,20.09-23,31.57-21.52-18.68-73.19-18.68-73.19Z" transform="translate(0 0)"/>
    <path class="user3" d="M406.25,159c-6.14,5.73-10.48,15.45-19.54,15.45a34.2,34.2,0,0,1-13.06-2.57c-3.84-9.14-7-16.21-7-16.21l43-11.48C408.25,152.41,404.78,153.16,406.25,159Z" transform="translate(0 0)"/>
    <circle class="user2" cx="386.71" cy="137.01" r="34.44"/>
    <path class="user4" d="M406.8,185.81S391.92,200.91,385,202s-32.76,45.54-25.57,81.42-8.61,110.5-1.43,114.8,122-15.78,122-15.78Z" transform="translate(0 0)"/>
    <path class="user6" d="M421.15,178.63s-25.83-8.61-34.44,37.31-20.09,7.18-20.09,66-4.31,80.37,2.87,130.59,12.91,50.23,4.3,67.45S465.63,492.9,490,459.89s-7.18-156.42-20.09-175.08-12.92-76.05-23-90.4A38.48,38.48,0,0,0,421.15,178.63Z" transform="translate(0 0)"/>
    <path class="user7" d="M420.38,459.52l-12.71-15.9L367.1,250l27.27-50.9a30.22,30.22,0,0,1,23.18-15.75,29.62,29.62,0,0,1,26,10c39.47,44.94,59.28,184.29,60.1,190.2l.08.56-4,10.41-21,47.07Zm-8.71-17.78,10.24,12.8L475.55,438l20.16-45.18,3.59-9.27c-1.42-9.78-21.59-144.83-59-187.41a25.85,25.85,0,0,0-42.15,4.94l-26.52,49.53Z" transform="translate(0 0)"/>
    <path class="user6" d="M333.61,266.17h0L296.32,233a2.25,2.25,0,0,1-.37-2.92l.46-.7h0a2,2,0,0,1,2.76-.6,1.83,1.83,0,0,1,.31.24l34,31.5a3.9,3.9,0,0,1,.26,5.51Z" transform="translate(0 0)"/>
    <path class="user8" d="M333.61,266.17h0L296.32,233a2.25,2.25,0,0,1-.37-2.92l.46-.7,37.11,33.28a2.41,2.41,0,0,1,.19,3.4A.52.52,0,0,1,333.61,266.17Z" transform="translate(0 0)"/>
    <path class="user2" d="M444.11,273.34S391,269,381,250.34s-35.88-8.61-28.7,0S358,279,378.1,280.48,448.41,292,448.41,292Z" transform="translate(0 0)"/>
    <path class="user7" d="M501.51,383.84S465.63,386.71,457,424s-47.35,18.66-47.35,18.66-4.31,97.58,58.83,73.19S546,445.55,546,439.81,503,399.63,501.51,383.84Z" transform="translate(0 0)"/>
    <path class="user3" d="M545.69,442a12.09,12.09,0,0,0,.31-2.16c0-4.91-31.51-30.84-41.51-48.11C506.61,405.07,535.89,430.52,545.69,442Z" transform="translate(0 0)"/>
    <path class="user7" d="M342.25,112.85c-2,6.28,4.47,12.63,11,13.29s12.86-2.47,18.84-5.27,12.66-5.42,19.05-3.72c7,1.85,11.66,8.36,14.77,14.86a74.12,74.12,0,0,1,5.89,17.88c1.28,6.62,1.87,13.9,6.42,18.9s12.1,6.35,19,6.32,13.88-1,20.53.7c13.2,3.44,21.37,16.59,26.08,29.36s7.54,26.68,16.07,37.31c7.11,8.88,17.48,14.51,27.87,19.18,5.24,2.35,10.67,4.54,16.39,5.08s11.86-.79,16-4.71c4.67-4.38,6.17-11.06,7.44-17.32,1.85-9.08,3.7-18.41,2.17-27.56-2-12-9.71-22.55-11.48-34.6-1.72-11.72,2.33-23.55,1.92-35.39-.69-19.82-15.28-38.4-34.41-43.83-7-2-14.35-2.36-21.07-5-8.76-3.49-15.51-10.51-22.67-16.64A137.78,137.78,0,0,0,422.55,52c-14.74-3.27-32.18-3.32-42.6,7.57C375.72,64,373,70,367.55,72.91c-2.77,1.53-5.95,2.08-8.93,3.11-14.72,5.06-23.18,23.4-17.47,37.84" transform="translate(0 0)"/>
    <path class="user7" d="M343.11,98c-3.37,5.67,1.49,13.31,7.71,15.43s13.08.51,19.54-.87,13.56-2.42,19.4.68c6.4,3.39,9.47,10.78,11,17.82a74.74,74.74,0,0,1,1.69,18.75c-.25,6.74-1.32,14,2,19.86s10.35,8.92,17.08,10.45,13.75,2.17,19.84,5.33c12.08,6.33,17.06,21,18.76,34.49s1.32,27.7,7.22,40c4.92,10.26,13.75,18.09,22.81,25,4.58,3.47,9.37,6.83,14.82,8.65s11.73,1.91,16.65-1c5.54-3.21,8.51-9.38,11.16-15.19,3.86-8.42,7.77-17.09,8.35-26.35.76-12.15-4.36-24.17-3.36-36.3,1-11.81,7.6-22.42,9.87-34,3.81-19.47-6.2-40.86-23.6-50.48-6.37-3.53-13.45-5.54-19.4-9.63-7.74-5.38-12.73-13.75-18.32-21.34A137.83,137.83,0,0,0,435.1,56.85c-13.62-6.52-30.6-10.52-43.21-2.26-5.13,3.36-9.18,8.56-15.11,10.23-3,.86-6.26.68-9.4,1-15.48,1.6-27.87,17.55-25.57,32.91" transform="translate(0 0)"/>
    <path class="user3" d="M552.82,252.39c-5.72-.54-11.15-2.73-16.39-5.08-10.39-4.67-20.75-10.3-27.87-19.18-8.53-10.63-11.37-24.53-16.07-37.31s-12.88-25.92-26.08-29.36c-6.65-1.74-13.66-.73-20.53-.7s-14.35-1.24-19-6.32-5.14-12.28-6.42-18.9a73.55,73.55,0,0,0-5.89-17.88c-3.11-6.5-7.79-13-14.77-14.86-6.39-1.7-13.07.92-19.05,3.72s-12.26,5.93-18.84,5.27-13-7-11-13.29l-1,1a27.71,27.71,0,0,1-.68-17.67c-8.47,8-12.26,21.1-7.94,32l1-1c-2,6.28,4.47,12.63,11,13.29s12.86-2.47,18.84-5.27,12.66-5.42,19.05-3.72c7,1.85,11.66,8.36,14.77,14.86a74.12,74.12,0,0,1,5.89,17.88c1.28,6.62,1.87,13.9,6.42,18.9s12.1,6.35,19,6.32,13.88-1,20.53.7c13.2,3.44,21.37,16.59,26.08,29.36s7.54,26.68,16.07,37.31c7.11,8.88,17.48,14.51,27.87,19.18,5.24,2.35,10.67,4.54,16.39,5.08s11.86-.79,16-4.71c3.52-3.3,5.24-7.92,6.42-12.68A21.9,21.9,0,0,1,552.82,252.39Z" transform="translate(0 0)"/>
    <path class="user6" d="M406.8,198.72s-4.31,31.57,11.48,38.75S445.54,269,445.54,269l-12.91,2.87S428.32,292,439.8,297.7s43.05,0,43.05,0,14.36-7.18,2.87-30.14-44.47-73.14-44.47-73.14S424,175.76,406.8,198.72Z" transform="translate(0 0)"/>
    <ellipse class="user2" cx="408" cy="137.5" rx="6.91" ry="10.36"/>
    <rect class="user9" x="63" y="38" width="127" height="12"/>
    <path class="user3" d="M247.5,192.87,221.72,148H0V1H292V148H247.5ZM1,147H222.3l24.2,42.13V147H291V2H1Z" transform="translate(0 0)"/>
    <path class="user4" d="M247.5,191.87,221.72,147H0V0H292V147H247.5ZM1,146H222.3l24.2,42.13V146H291V1H1Z" transform="translate(0 0)"/>
    <circle class="user9" cx="33" cy="44" r="16.5"/>
    <circle class="user10" cx="239.5" cy="112.5" r="6"/>
    <circle class="user10" cx="254.5" cy="112.5" r="6"/>
    <circle class="user10" cx="269.5" cy="112.5" r="6"/>
</svg>