<svg id="fd01fc53-8d1b-486a-a481-e11f41af06c1"
    xmlns="http://www.w3.org/2000/svg"
    xmlns:xlink="http://www.w3.org/1999/xlink" viewBox="0 0 1038.06 708.75">
    <defs>
        <linearGradient id="linear-gradient" x1="163.53" y1="240.11" x2="163.53" y2="373.97" gradientTransform="matrix(1, 0, 0, -1, -36.65, 708.85)" gradientUnits="userSpaceOnUse">
            <stop offset="0" stop-color="gray" stop-opacity="0.25"/>
            <stop offset="0.54" stop-color="gray" stop-opacity="0.12"/>
            <stop offset="1" stop-color="gray" stop-opacity="0.1"/>
        </linearGradient>
        <linearGradient id="linear-gradient-2" x1="437.34" y1="350.11" x2="437.34" y2="471.56" xlink:href="#linear-gradient"/>
        <linearGradient id="linear-gradient-3" x1="692.05" y1="470.11" x2="692.05" y2="595.35" xlink:href="#linear-gradient"/>
    </defs>
    <title>undraw_destinations_fpv7</title>
    <path class="cls-user1" d="M156.24,410.83c-1.12-1.67-2.22-3.37-3.28-5.07l1.7-1.06c1,1.69,2.13,3.37,3.24,5Z" transform="translate(-36.65 -1.04)"/>
    <path class="cls-user1" d="M146.93,395c-1.85-3.64-3.58-7.4-5.12-11.18l1.85-.76c1.52,3.73,3.22,7.44,5.05,11Zm-9.3-22.74c-1.23-3.9-2.31-7.89-3.21-11.87l2-.45c.89,3.93,2,7.87,3.17,11.71Zm-5.42-24c-.57-4-1-8.15-1.21-12.23l2-.12c.23,4,.63,8.09,1.19,12.07Zm.58-24.48-2-.05c.1-4.08.37-8.21.79-12.26l2,.21C133.15,315.74,132.89,319.82,132.79,323.85Zm2.55-24.1-2-.37c.76-4,1.7-8,2.79-12l1.92.53c-1.07,3.88-2,7.85-2.75,11.81Zm6.48-23.35-1.88-.7c1.42-3.83,3-7.65,4.74-11.35l1.81.85c-1.71,3.65-3.28,7.42-4.67,11.2Zm273.9-6.18c-1.56-3.71-3.3-7.4-5.17-11l1.77-.92c1.9,3.62,3.66,7.36,5.24,11.12Zm-263.65-15.8-1.74-1c2-3.54,4.23-7.05,6.54-10.42l1.65,1.13C156.24,247.47,154.07,250.93,152.07,254.42Zm252.42-5.68c-2.15-3.4-4.48-6.76-6.9-10l1.59-1.2c2.46,3.26,4.82,6.66,7,10.11Zm-238.7-14.31-1.55-1.26c2.58-3.17,5.33-6.26,8.16-9.21l1.44,1.39C171.05,228.25,168.34,231.31,165.79,234.43Zm224.1-5c-2.68-3-5.52-5.94-8.44-8.71l1.38-1.45c2.95,2.81,5.83,5.78,8.55,8.83ZM182.6,217l-1.33-1.5c3.06-2.7,6.27-5.31,9.54-7.75l1.2,1.6C188.78,211.72,185.61,214.29,182.6,217Zm189.72-4.28c-3.13-2.53-6.42-5-9.75-7.22l1.13-1.65c3.37,2.29,6.7,4.75,9.88,7.32ZM202,202.46l-1.06-1.7c3.46-2.16,7-4.21,10.68-6.08l.91,1.78C209,198.3,205.43,200.32,202,202.46Zm150.24-3.39c-3.51-2-7.15-3.84-10.8-5.52l.83-1.82c3.71,1.7,7.39,3.59,10.95,5.6Zm-128.71-7.72-.77-1.85c3.77-1.56,7.65-3,11.53-4.24l.61,1.91C231.09,188.4,227.26,189.81,223.55,191.35Zm106.69-2.41c-3.79-1.38-7.68-2.61-11.57-3.67l.52-1.92c3.95,1.07,7.89,2.31,11.73,3.71Zm-83.63-5-.45-1.95c4-.92,8-1.68,12.08-2.27l.29,2c-4,.58-8,1.33-11.92,2.24Zm60.23-1.36c-3.95-.72-8-1.3-12-1.7l.2-2c4.07.41,8.16,1,12.17,1.73Zm-36.25-2.14-.12-2c4.06-.25,8.21-.35,12.29-.27l0,2C278.7,180.09,274.61,180.19,270.59,180.44Z" transform="translate(-36.65 -1.04)"/>
    <path class="cls-user1" d="M421.75,287.42c-.54-1.9-1.12-3.82-1.73-5.7l1.9-.62c.62,1.91,1.21,3.85,1.75,5.78Z" transform="translate(-36.65 -1.04)"/>
    <path class="cls-user1" d="M409.55,175.42h-2c0-2,0-4,.11-6l2,.07C409.59,171.44,409.55,173.44,409.55,175.42Z" transform="translate(-36.65 -1.04)"/>
    <path class="cls-user1" d="M410.5,157.43l-2-.21c.43-4,1-8.09,1.73-12.07l2,.35C411.5,149.44,410.93,153.45,410.5,157.43Zm4.26-23.7-1.94-.49c1-3.93,2.16-7.87,3.44-11.7l1.9.63C416.89,126,415.75,129.85,414.76,133.73Zm319-21.1c-1.49-3.71-3.14-7.42-4.9-11l1.8-.88c1.78,3.64,3.44,7.39,5,11.14Zm-311.33-1.75-1.85-.77c1.55-3.74,3.27-7.47,5.09-11.09l1.79.9C425.61,103.5,423.92,107.18,422.39,110.88ZM723.14,91c-2-3.46-4.17-6.89-6.43-10.19l1.65-1.13c2.29,3.35,4.47,6.81,6.51,10.31ZM433.22,89.35l-1.72-1c2.08-3.48,4.31-6.92,6.63-10.25l1.64,1.15c-2.3,3.28-4.5,6.69-6.55,10.12ZM709.57,71.1c-2.49-3.14-5.12-6.23-7.81-9.17l1.47-1.36c2.73,3,5.39,6.11,7.91,9.29ZM447,69.6l-1.55-1.26c2.55-3.15,5.24-6.24,8-9.19l1.46,1.37C452.21,63.43,449.54,66.49,447,69.6ZM693.31,53.33c-2.91-2.75-5.95-5.43-9-8l1.27-1.55c3.12,2.57,6.2,5.28,9.14,8.07ZM463.48,52l-1.35-1.47c3-2.75,6.07-5.43,9.23-8l1.25,1.56c-3.12,2.51-6.19,5.15-9.13,7.87Zm211.2-14c-3.26-2.31-6.66-4.53-10.08-6.6l1-1.71c3.46,2.09,6.89,4.34,10.2,6.68ZM482.27,37l-1.13-1.65c3.33-2.3,6.78-4.5,10.27-6.56l1,1.72c-3.44,2-6.86,4.22-10.15,6.49Zm171.8-11.37c-3.56-1.83-7.24-3.54-10.92-5.1l.78-1.84c3.72,1.58,7.44,3.31,11.05,5.15ZM503,24.73l-.89-1.79c3.63-1.8,7.36-3.49,11.1-5l.76,1.85c-3.7,1.52-7.39,3.19-11,5ZM631.88,16.2c-3.78-1.29-7.66-2.45-11.54-3.47l.51-1.93c3.92,1,7.85,2.21,11.68,3.51Zm-106.6-.59-.63-1.9c3.85-1.26,7.79-2.4,11.72-3.38l.48,1.94c-3.88,1-7.78,2.1-11.57,3.34Zm83.3-5.5c-3.93-.73-7.94-1.33-11.92-1.77l.23-2c4,.45,8.08,1.05,12.06,1.79Zm-59.94-.33-.34-2c4-.69,8-1.25,12.07-1.66l.21,2c-4,.4-8,.95-11.94,1.64Zm36-2.36c-4-.16-8.08-.18-12-.07l-.06-2c4-.12,8.14-.1,12.19.06Z" transform="translate(-36.65 -1.04)"/>
    <path class="cls-user1" d="M739.57,129.79c-.53-1.9-1.11-3.82-1.71-5.71l1.9-.61c.61,1.91,1.2,3.85,1.74,5.78Z" transform="translate(-36.65 -1.04)"/>
    <rect class="cls-user2" x="584.53" y="706.3" width="453.54" height="2.44"/>
    <path class="cls-user2" d="M995.43,72.43c-7,20.88-17.86,39.9-39.89,39.9s-38.66-17.9-39.9-39.9c-1.59-28.11,17.35-40,39.9-39.89C982.17,32.67,1003.8,47.66,995.43,72.43Z" transform="translate(-36.65 -1.04)"/>
    <rect class="cls-user2" x="878.99" y="68.24" width="78.74" height="99.74"/>
    <path class="cls-user3" d="M996.7,143.59h6.69s16.37,20.84,8.93,49.12-1.49,33.48-1.49,33.48,9.69,30.63-.73,76.77,9.66,58.67,9.66,58.67l-18.6-37.2-10.42-98.24Z" transform="translate(-36.65 -1.04)"/>
    <path class="cls-user4" d="M996.7,146h6.69s16.37,20.83,8.93,49.11-1.49,33.49-1.49,33.49,9.69,30.63-.73,76.76,9.66,58.68,9.66,58.68l-18.6-37.21-10.42-98.23Z" transform="translate(-36.65 -1.04)"/>
    <path class="cls-user5" d="M973.25,107.5s-6,23.81-3,23.81S983.67,144,983.67,144l6.7,24.56-5.21,17.86-17.86-3.72L945,158.1l-6.69-6.7-6-21.58s7.45-8.93,2.24-16.37S973.25,107.5,973.25,107.5Z" transform="translate(-36.65 -1.04)"/>
    <path class="cls-user4" d="M973.25,107.5s-6,23.81-3,23.81S983.67,144,983.67,144l6.7,24.56-5.21,17.86-17.86-3.72L945,158.1l-6.69-6.7-6-21.58s7.45-8.93,2.24-16.37S973.25,107.5,973.25,107.5Z" transform="translate(-36.65 -1.04)"/>
    <path class="cls-user5" d="M793.16,173.73l-16.37-26.79s-17.67-39.1-30.32-25,19.16,42.82,19.16,42.82L782,186.38Z" transform="translate(-36.65 -1.04)"/>
    <path class="cls-user5" d="M1010.46,406.66l-11.9,87.07s1.48,6.69-13.4,31.25-55.07,78.14-55.07,78.14l-11.91-22.33s14.14-70.69,38.7-85.58l-3-107.16Z" transform="translate(-36.65 -1.04)"/>
    <path class="cls-user4" d="M1010.46,406.66l-11.9,87.07s1.48,6.69-13.4,31.25-55.07,78.14-55.07,78.14l-11.91-22.33s14.14-70.69,38.7-85.58l-3-107.16Z" transform="translate(-36.65 -1.04)"/>
    <path class="cls-user2" d="M918.18,571.86l16.38,31.26s-13.4,38-8.19,41.67,11.91,37.21-2.23,33.49-25.3-18.6-25.3-20.83S907,624,902.56,616.52s-7.45-9.68-7.45-9.68L884,625.45l-3.72-2.24L898.84,592s2.23-6,11.16-9.68Z" transform="translate(-36.65 -1.04)"/>
    <path class="cls-user4" d="M918.18,571.86l16.38,31.26s-13.4,38-8.19,41.67,11.91,37.21-2.23,33.49-25.3-18.6-25.3-20.83S907,624,902.56,616.52s-7.45-9.68-7.45-9.68L884,625.45l-3.72-2.24L898.84,592s2.23-6,11.16-9.68Z" transform="translate(-36.65 -1.04)"/>
    <path class="cls-user5" d="M954.08,394.3s5.78,82.31-6.87,103.89V605.35l-17.12,2.24S895.53,550.85,908.18,495s-13.07-107-13.07-107Z" transform="translate(-36.65 -1.04)"/>
    <circle class="cls-user5" cx="913.16" cy="93.44" r="31.26"/>
    <path class="cls-user3" d="M981.44,176.71l-31.26-39.45-17.86-11.9L924.88,135,904,141s-13.39,3-27.53,19.34-39.44,26-39.44,26l-20.84-3.72s-24.56-11.16-24.56-14.14-21.58,20.09-16.37,29,16.37,20.1,22.33,26.05,8.18,23.07,44.65,17.86,49.86-23.07,49.86-23.07,6.7,34.23,26,40.93,82.61,11.16,82.61,11.16l13.39-44.65s14.89-19.35-5.21-47.63c0,0-.38-15.81-2.54-26.34-.84-4.09-1.95-7.38-3.41-8.63-5.21-4.47-32.74-11.91-32.74-11.91s4.46,14.88,6.69,15.63S984.42,173,981.44,176.71Z" transform="translate(-36.65 -1.04)"/>
    <path class="cls-user2" d="M881.35,398.84c37.47-2.6,59.29,3.54,69,8.22a24.52,24.52,0,0,1,5.07,3.08c.72.6,1.06,1.07,1.06,1.35,0,2.24,51.35,6.7,70,2.24s-12.65-100.47-20.83-108.65-3.78-38.15-3.78-38.15-16.32-3.53-20.78-2-27.54-2.23-35.72-6.7-18.61-1.48-25.31-3c-3-.67-4.5.45-5.25,1.89a12.93,12.93,0,0,1-5.09,5.15c-15.8,9.1-28.48,72-38,106.82C861.25,407,881.35,398.84,881.35,398.84Z" transform="translate(-36.65 -1.04)"/>
    <path class="cls-user2" d="M950.18,598.66l3,16.37s15.63,22.32,11.16,40.93c0,0,3.72,24.55,17.12,31.25s2.23,22.33-10.42,21.58-24.56.75-26-3-10.41-40.19-10.41-40.19l-2.45,42.67-7.44.75,2.44-49.37s-6-11.16,2.24-29.77l-2.07-28.56S948,606.1,950.18,598.66Z" transform="translate(-36.65 -1.04)"/>
    <path class="cls-user4" d="M950.38,407.06a24.52,24.52,0,0,1,5.07,3.08c.4-7,2.67-49.56-.06-48.88Z" transform="translate(-36.65 -1.04)"/>
    <path class="cls-user2" d="M936.87,51.43s-.34-1.92-13.88,3.15-21.65,42.54-14.88,64.54c2.72,8.87.5,15.26-3.12,19.73-13.59,16.78-8.24,42,11.56,50.62q.84.38,1.71.72l8.46,5.08s-10.79-14.19-5.39-32.35A93,93,0,0,0,923,115.27c-.62-2.65-1.32-5.39-2.12-8.19-6.77-23.69-3.48-21,20.21-44.65,0,0,13.54,10.16,25.39,15.23s22,10.16,13.53,27.08-28.76,32.15-15.23,54.15,15.23,13.54,13.54,22h0l-1.69,8.46,10.15-10.15L980,192.73s22,0,28.77-16.92l3.39,3.39s13.53-23.7-11.85-45.69c0,0-8.46-5.08,3.39-22s2.74-53.31-12.49-60.08S936.87,51.43,936.87,51.43Z" transform="translate(-36.65 -1.04)"/>
    <circle class="cls-user2" cx="918.89" cy="24.15" r="15.75"/>
    <path class="cls-user2" d="M936.64,16.79A15.74,15.74,0,0,1,950.81,1.12c-.52-.05-1-.08-1.57-.08a15.75,15.75,0,0,0,0,31.5c.53,0,1,0,1.57-.08A15.75,15.75,0,0,1,936.64,16.79Z" transform="translate(-36.65 -1.04)"/>
    <polyline class="cls-user6" points="0.59 514.85 116.31 429.89 270.55 429.89 403.12 316.66 560.01 316.66 692.17 167.99"/>
    <g class="cls-user7">
        <ellipse class="cls-user8" cx="126.88" cy="401.81" rx="66.26" ry="66.93"/>
    </g>
    <ellipse class="cls-user9" cx="127.01" cy="401.38" rx="64.85" ry="65.52"/>
    <path class="cls-user10" d="M199.34,408.88c0,21.79-15.5,32.52-35.63,32.52s-37.25-10.73-37.25-32.52,16.31-39.47,36.44-39.47S199.34,387.06,199.34,408.88Z" transform="translate(-36.65 -1.04)"/>
    <path class="cls-user11" d="M163.71,468.2a64.16,64.16,0,0,0,35.66-10.78c-2.39-13.19-11.49-13.95-11.49-13.95H137.73s-8.58.71-11.26,12.85A64.09,64.09,0,0,0,163.71,468.2Z" transform="translate(-36.65 -1.04)"/>
    <path class="cls-user4" d="M152.93,427.36H173v16.22a10.08,10.08,0,0,1-10,10.14h0a10.08,10.08,0,0,1-10-10.13V427.36Z" transform="translate(-36.65 -1.04)"/>
    <path class="cls-user12" d="M154.84,426.63h16.23a1.93,1.93,0,0,1,1.91,1.94v14.27A10.08,10.08,0,0,1,163,453h0a10.08,10.08,0,0,1-10-10.13V428.56a1.92,1.92,0,0,1,1.91-1.93Z" transform="translate(-36.65 -1.04)"/>
    <path class="cls-user4" d="M153,435a28.51,28.51,0,0,0,20.06.06V432.6H153Z" transform="translate(-36.65 -1.04)"/>
    <ellipse class="cls-user12" cx="126.38" cy="406.3" rx="28.75" ry="29.04"/>
    <path class="cls-user4" d="M129.89,409.24s17.91-2.19,31.45-19.73c0,0,17.9,19.92,30.38,17.72,0,0,7.23-7.67,0-15.34s-12.84-17.36-22.43-16.08-21.34,1.82-26.4,6.39S129.89,409.24,129.89,409.24Z" transform="translate(-36.65 -1.04)"/>
    <path class="cls-user10" d="M129.89,408.88s17.91-2.2,31.45-19.73c0,0,17.9,19.91,30.38,17.72,0,0,7.23-7.68,0-15.35s-12.84-17.35-22.43-16.08-21.32,1.81-26.37,6.43S129.89,408.88,129.89,408.88Z" transform="translate(-36.65 -1.04)"/>
    <ellipse class="cls-user12" cx="97.62" cy="406.28" rx="2.68" ry="5.07"/>
    <ellipse class="cls-user12" cx="155.12" cy="406.28" rx="2.68" ry="5.07"/>
    <g class="cls-user7">
        <ellipse class="cls-user13" cx="400.69" cy="298.02" rx="60.07" ry="60.72"/>
    </g>
    <ellipse class="cls-user9" cx="400.81" cy="297.63" rx="58.8" ry="59.44"/>
    <path class="cls-user11" d="M437.51,358.34a58.09,58.09,0,0,0,32.32-9.77c-2.17-12-10.42-12.66-10.42-12.66H413.93s-7.78.65-10.21,11.66A58.06,58.06,0,0,0,437.51,358.34Z" transform="translate(-36.65 -1.04)"/>
    <ellipse class="cls-user10" cx="400.24" cy="296.38" rx="28.39" ry="28.69"/>
    <path class="cls-user4" d="M427.73,321.31h18.19V336a9.14,9.14,0,0,1-9.1,9.19h0a9.14,9.14,0,0,1-9.09-9.19h0V321.31Z" transform="translate(-36.65 -1.04)"/>
    <path class="cls-user14" d="M429.46,320.63h14.72a1.75,1.75,0,0,1,1.74,1.76h0v13a9.14,9.14,0,0,1-9.1,9.19h0a9.13,9.13,0,0,1-9.09-9.18h0v-13a1.73,1.73,0,0,1,1.73-1.75Z" transform="translate(-36.65 -1.04)"/>
    <path class="cls-user4" d="M427.76,328.26a26,26,0,0,0,18.19.05V326H427.76Z" transform="translate(-36.65 -1.04)"/>
    <ellipse class="cls-user14" cx="400.24" cy="302.1" rx="26.07" ry="26.35"/>
    <path class="cls-user4" d="M418.32,279.16s11,22.54,42,9.44l-7.21-11.44-12.79-4.64Z" transform="translate(-36.65 -1.04)"/>
    <path class="cls-user10" d="M418.32,278.83s11,22.54,42,9.44l-7.21-11.44-12.79-4.64Z" transform="translate(-36.65 -1.04)"/>
    <path class="cls-user10" d="M418.23,277.3a15.26,15.26,0,0,1,3.73-6.13c5.12-5.13,13.53-6.21,17.84-12.05a3.42,3.42,0,0,1-1.25,4.65l-.3.16c4.15,0,8.92-.4,11.25-3.83a7.85,7.85,0,0,1-1.3,8.24c3.66.17,7.57,2.68,7.81,6.38a7.39,7.39,0,0,1-3.38,6.21,18.41,18.41,0,0,1-6.81,2.59C438.87,285.09,413.68,291.59,418.23,277.3Z" transform="translate(-36.65 -1.04)"/>
    <ellipse class="cls-user14" cx="374.16" cy="302.07" rx="2.43" ry="4.6"/>
    <ellipse class="cls-user14" cx="426.3" cy="302.07" rx="2.43" ry="4.6"/>
    <g class="cls-user7">
        <ellipse class="cls-user15" cx="655.4" cy="176.12" rx="64.78" ry="62.62"/>
    </g>
    <ellipse class="cls-user9" cx="655.52" cy="175.72" rx="63.41" ry="61.29"/>
    <path class="cls-user11" d="M692.23,238.3a64.74,64.74,0,0,0,34.83-10.08c-2.34-12.34-11.23-13.05-11.23-13.05h-49s-8.38.66-11,12A64.62,64.62,0,0,0,692.23,238.3Z" transform="translate(-36.65 -1.04)"/>
    <ellipse class="cls-user16" cx="654.91" cy="174.43" rx="30.61" ry="29.59"/>
    <path class="cls-user4" d="M681.68,200.11h19.61v15.17a9.64,9.64,0,0,1-9.8,9.48h0a9.65,9.65,0,0,1-9.81-9.48h0V200.11Z" transform="translate(-36.65 -1.04)"/>
    <path class="cls-user12" d="M683.55,199.41h15.87a1.84,1.84,0,0,1,1.87,1.81h0v13.36a9.65,9.65,0,0,1-9.8,9.48h0a9.65,9.65,0,0,1-9.81-9.48h0V201.22a1.84,1.84,0,0,1,1.88-1.81h0Z" transform="translate(-36.65 -1.04)"/>
    <path class="cls-user4" d="M681.72,207.27a29.09,29.09,0,0,0,19.61.06V205H681.72Z" transform="translate(-36.65 -1.04)"/>
    <ellipse class="cls-user12" cx="654.91" cy="180.33" rx="28.11" ry="27.17"/>
    <ellipse class="cls-user16" cx="654.87" cy="144.34" rx="11.31" ry="10.94"/>
    <ellipse class="cls-user16" cx="654.87" cy="133.57" rx="7.43" ry="7.18"/>
    <path class="cls-user16" d="M686.61,151.37a10.81,10.81,0,0,1-5.9-14c-.08.15-.15.31-.23.46a10.79,10.79,0,0,0,5.7,14.46,11.47,11.47,0,0,0,15-5.5l.21-.48A11.5,11.5,0,0,1,686.61,151.37Z" transform="translate(-36.65 -1.04)"/>
    <path class="cls-user4" d="M671.54,156.66s11.84,23.23,45.27,9.72L709,154.59l-13.79-4.79Z" transform="translate(-36.65 -1.04)"/>
    <path class="cls-user16" d="M671.54,156.31s11.84,23.23,45.27,9.73L709,154.24l-13.79-4.79Z" transform="translate(-36.65 -1.04)"/>
    <path class="cls-user10" d="M680.67,147.85a143,143,0,0,1,21.9,0S686.39,149.3,680.67,147.85Z" transform="translate(-36.65 -1.04)"/>
    <path class="cls-user16" d="M693.22,127a7.83,7.83,0,0,0-1.68.12H692a7.16,7.16,0,0,1,1.12,14.23,7.18,7.18,0,1,0,.13-14.35Z" transform="translate(-36.65 -1.04)"/>
    <ellipse class="cls-user12" cx="626.79" cy="180.31" rx="2.62" ry="4.74"/>
    <ellipse class="cls-user12" cx="683.02" cy="180.31" rx="2.62" ry="4.74"/>
    <polygon class="cls-user16" points="633.12 155.96 638.6 153.22 639.84 157.61 636.48 159.82 633.12 155.96"/>
</svg>