<svg id="b1679105-0122-4d59-939d-a96e32c04bd3"
    xmlns="http://www.w3.org/2000/svg" viewBox="0 0 380.11 415.1">
    <defs>
        <style>.cls-1{fill:#e6e6e6;}.cls-2{fill:#a0616a;}.cls-3{fill:#2f2e41;}.cls-4{fill:#ccc;}.cls-5{fill:#6c63ff;}.cls-6{fill:#fff;}</style>
    </defs>
    <title>undraw_Imagination_re_</title>
    <ellipse class="cls-1" cx="190.05" cy="405.4" rx="190.05" ry="9.7"/>
    <path class="cls-2" d="M200.55,379.06l-40.14-40.14a10.62,10.62,0,0,0-17.73,4.57h0A10.62,10.62,0,0,0,145.37,354L171,379.58l-35.76,28.51v0c-.18,0-.35,0-.53,0A10.89,10.89,0,1,0,145.6,419Z" transform="translate(0 -231.4)"/>
    <polygon class="cls-2" points="82 395.59 70.1 391.14 81.58 343.1 99.15 349.66 82 395.59"/>
    <path class="cls-3" d="M43,625l37.43,14h0l5.39-14.46h0l-23.47-8.76a14.89,14.89,0,0,0-19.16,8.74L43,625Z" transform="translate(0 -231.4)"/>
    <polygon class="cls-2" points="189.13 391.77 176.41 391.77 170.37 342.75 189.13 342.75 189.13 391.77"/>
    <path class="cls-3" d="M151.9,635h39.95V619.54H166.79a14.89,14.89,0,0,0-14.89,14.88h0V635Z" transform="translate(0 -231.4)"/>
    <path class="cls-3" d="M157,393.58s-31.11-5.19-41.47,7.25L71.48,604.55l24.88,3.11s8.29-105.75,49.76-133.74c0,0,30.07,93.31,24.88,135.81l21.77-2.07S199.51,428.82,157,393.58Z" transform="translate(0 -231.4)"/>
    <circle class="cls-2" cx="149.48" cy="56.83" r="24.56"/>
    <path class="cls-4" d="M173.59,334.48s-22.8-27-41.47-5.18h0a74.13,74.13,0,0,0-17.8,50.43l.7,23.7,43-6.74Z" transform="translate(0 -231.4)"/>
    <path class="cls-2" d="M149.36,352.36a11.16,11.16,0,0,1-15.71,1.52,10.8,10.8,0,0,1-1.33-1.29L45.4,252.75h-.23A10.67,10.67,0,0,1,35,241.62a10.83,10.83,0,0,1,.32-2.18h0a10.83,10.83,0,0,1,11.53-8,10.64,10.64,0,0,1,9.5,10.31v.2l92.44,95.54a11.15,11.15,0,0,1,.69,14.74Z" transform="translate(0 -231.4)"/>
    <path class="cls-2" d="M141,327.56a11.17,11.17,0,0,1,11,11.31,11.36,11.36,0,0,1-.18,1.84L128.29,471l.14.18a10.71,10.71,0,0,1-4.2,16h0a10.82,10.82,0,0,1-13.44-4,10.63,10.63,0,0,1,2.1-13.86l.15-.13,16.74-131.88a11.15,11.15,0,0,1,11.07-9.76Z" transform="translate(0 -231.4)"/>
    <path class="cls-3" d="M145.5,292.48l-10.56-12.43c-2.72-3.21-5.56-6.7-5.95-10.88-.42-4.59,2.37-9.05,6.19-11.63s8.5-3.56,13.09-3.91c8.52-.66,17.48.74,24.48,5.64s11.59,13.73,9.88,22.1c-1.34,6.6-6.3,12.91-4.37,19.36,2.1,7,10.74,9.21,17.8,11.32,11.84,3.53,23.14,10.48,29.35,21.16s6.18,25.42-2.09,34.59c-5.36,5.95-13.44,8.95-21.43,9.41s-15.93-1.43-23.51-4c-7-2.37-13.88-5.41-19.37-10.33s-9.45-11.94-9.28-19.3c.16-7,3.93-13.42,5.47-20.27a33.26,33.26,0,0,0-10.4-31.73" transform="translate(0 -231.4)"/>
    <path class="cls-5" d="M162.26,251.88l-6.64-1.3a4.27,4.27,0,0,0-5,3.36h0l-9.19,30.85h0l15,2.94h0l9.2-30.84A4.28,4.28,0,0,0,162.26,251.88Z" transform="translate(0 -231.4)"/>
    <circle class="cls-6" cx="147.64" cy="58.8" r="12.09"/>
    <circle class="cls-5" cx="147.64" cy="58.8" r="6.72"/>
</svg>